<mxfile host="Electron" modified="2024-11-19T03:33:36.420Z" agent="Mozilla/5.0 (Windows NT 10.0; Win64; x64) AppleWebKit/537.36 (KHTML, like Gecko) draw.io/24.2.5 Chrome/120.0.6099.109 Electron/28.1.0 Safari/537.36" etag="7rGNh6fQ2T8d1pEFFDsX" version="24.2.5" type="device">
  <diagram id="C5RBs43oDa-KdzZeNtuy" name="Page-1">
    <mxGraphModel dx="1434" dy="884" grid="1" gridSize="10" guides="1" tooltips="1" connect="1" arrows="1" fold="1" page="1" pageScale="1" pageWidth="827" pageHeight="1169" math="0" shadow="0">
      <root>
        <mxCell id="WIyWlLk6GJQsqaUBKTNV-0" />
        <mxCell id="WIyWlLk6GJQsqaUBKTNV-1" parent="WIyWlLk6GJQsqaUBKTNV-0" />
        <mxCell id="Giol40Nq7dghw9i5D-OR-0" value="1" style="rounded=0;whiteSpace=wrap;html=1;fontSize=24;" vertex="1" parent="WIyWlLk6GJQsqaUBKTNV-1">
          <mxGeometry x="240" y="270" width="120" height="60" as="geometry" />
        </mxCell>
        <mxCell id="Giol40Nq7dghw9i5D-OR-1" value="5" style="rounded=0;whiteSpace=wrap;html=1;fontSize=24;" vertex="1" parent="WIyWlLk6GJQsqaUBKTNV-1">
          <mxGeometry x="410" y="270" width="120" height="60" as="geometry" />
        </mxCell>
        <mxCell id="Giol40Nq7dghw9i5D-OR-2" value="4" style="rounded=0;whiteSpace=wrap;html=1;fontSize=24;" vertex="1" parent="WIyWlLk6GJQsqaUBKTNV-1">
          <mxGeometry x="570" y="270" width="120" height="60" as="geometry" />
        </mxCell>
        <mxCell id="Giol40Nq7dghw9i5D-OR-3" value="2" style="rounded=0;whiteSpace=wrap;html=1;fontSize=24;" vertex="1" parent="WIyWlLk6GJQsqaUBKTNV-1">
          <mxGeometry x="750" y="270" width="120" height="60" as="geometry" />
        </mxCell>
        <mxCell id="Giol40Nq7dghw9i5D-OR-4" value="9" style="rounded=0;whiteSpace=wrap;html=1;fontSize=24;" vertex="1" parent="WIyWlLk6GJQsqaUBKTNV-1">
          <mxGeometry x="910" y="270" width="121" height="60" as="geometry" />
        </mxCell>
        <mxCell id="Giol40Nq7dghw9i5D-OR-5" value="9" style="rounded=0;whiteSpace=wrap;html=1;fontSize=24;" vertex="1" parent="WIyWlLk6GJQsqaUBKTNV-1">
          <mxGeometry x="1070" y="270" width="121" height="60" as="geometry" />
        </mxCell>
        <mxCell id="Giol40Nq7dghw9i5D-OR-6" value="9" style="rounded=0;whiteSpace=wrap;html=1;fontSize=24;" vertex="1" parent="WIyWlLk6GJQsqaUBKTNV-1">
          <mxGeometry x="1241" y="270" width="121" height="60" as="geometry" />
        </mxCell>
        <mxCell id="Giol40Nq7dghw9i5D-OR-7" value="3" style="rounded=0;whiteSpace=wrap;html=1;fontSize=24;" vertex="1" parent="WIyWlLk6GJQsqaUBKTNV-1">
          <mxGeometry x="630" y="80" width="120" height="60" as="geometry" />
        </mxCell>
        <mxCell id="Giol40Nq7dghw9i5D-OR-8" value="2" style="rounded=0;whiteSpace=wrap;html=1;fontSize=24;" vertex="1" parent="WIyWlLk6GJQsqaUBKTNV-1">
          <mxGeometry x="750" y="400" width="120" height="60" as="geometry" />
        </mxCell>
        <mxCell id="Giol40Nq7dghw9i5D-OR-9" value="9" style="rounded=0;whiteSpace=wrap;html=1;fontSize=24;" vertex="1" parent="WIyWlLk6GJQsqaUBKTNV-1">
          <mxGeometry x="910" y="400" width="120" height="60" as="geometry" />
        </mxCell>
        <mxCell id="Giol40Nq7dghw9i5D-OR-10" value="9" style="rounded=0;whiteSpace=wrap;html=1;fontSize=24;" vertex="1" parent="WIyWlLk6GJQsqaUBKTNV-1">
          <mxGeometry x="1070" y="400" width="120" height="60" as="geometry" />
        </mxCell>
        <mxCell id="Giol40Nq7dghw9i5D-OR-11" value="10" style="rounded=0;whiteSpace=wrap;html=1;fontSize=24;" vertex="1" parent="WIyWlLk6GJQsqaUBKTNV-1">
          <mxGeometry x="410" y="540" width="120" height="60" as="geometry" />
        </mxCell>
        <mxCell id="Giol40Nq7dghw9i5D-OR-12" value="11" style="rounded=0;whiteSpace=wrap;html=1;fontSize=24;" vertex="1" parent="WIyWlLk6GJQsqaUBKTNV-1">
          <mxGeometry x="570" y="540" width="120" height="60" as="geometry" />
        </mxCell>
        <mxCell id="Giol40Nq7dghw9i5D-OR-13" value="15" style="rounded=0;whiteSpace=wrap;html=1;fontSize=24;" vertex="1" parent="WIyWlLk6GJQsqaUBKTNV-1">
          <mxGeometry x="750" y="540" width="120" height="60" as="geometry" />
        </mxCell>
        <mxCell id="Giol40Nq7dghw9i5D-OR-14" value="so i only need to check if first element and second element diff from the newly add element&lt;div&gt;then continue the array&lt;/div&gt;" style="rounded=0;whiteSpace=wrap;html=1;fontSize=17;" vertex="1" parent="WIyWlLk6GJQsqaUBKTNV-1">
          <mxGeometry x="1020" y="100" width="280" height="130" as="geometry" />
        </mxCell>
      </root>
    </mxGraphModel>
  </diagram>
</mxfile>
